<?xml version="1.0" encoding="UTF-8" standalone="no"?>
<!-- Created with Inkscape (http://www.inkscape.org/) -->

<svg
   width="36.897488mm"
   height="31.954124mm"
   viewBox="0 0 36.897488 31.954124"
   version="1.1"
   id="svg1"
   xmlns="http://www.w3.org/2000/svg"
   xmlns:svg="http://www.w3.org/2000/svg">
  <defs
     id="defs1" />
  <g
     id="layer1"
     transform="translate(-185.39185,-35.695873)">
    <path
       id="path13"
       style="fill:#000000;stroke:none;stroke-width:1;stroke-miterlimit:10;paint-order:fill markers stroke"
       d="M 203.84033,35.695873 189.08154,61.25917 h 3.69021 5.2e-4 l 7.37836,-12.780615 1.84485,3.195154 -1.84485,3.194637 -5.53455,9.586495 h -7.37939 l -1.84485,3.195154 h 7.37939 7.37991 14.75879 7.3794 l -1.84485,-3.195671 -5.2e-4,-5.17e-4 h -7.37939 l -7.37888,-12.781132 1.84485,-3.195153 7.37939,12.781648 h 3.6897 l -7.37991,-12.781648 -1.84485,-3.195154 5.2e-4,-5.17e-4 -1.84485,-3.195154 -5.2e-4,5.17e-4 z m 5.1e-4,6.390824 1.84485,3.195671 -1.84485,3.195154 -1.84485,-3.195154 z m -5.1e-4,12.782166 5.53402,9.584944 H 198.3063 l 1.84484,-3.195153 z" />
  </g>
</svg>
