<?xml version="1.0" encoding="UTF-8" standalone="no"?>
<!-- Created with Inkscape (http://www.inkscape.org/) -->

<svg
   width="36.897488mm"
   height="31.954124mm"
   viewBox="0 0 36.897488 31.954124"
   version="1.1"
   id="svg1"
   sodipodi:docname="rise_black.svg"
   inkscape:version="1.4 (1:1.4+202410161351+e7c3feb100)"
   xmlns:inkscape="http://www.inkscape.org/namespaces/inkscape"
   xmlns:sodipodi="http://sodipodi.sourceforge.net/DTD/sodipodi-0.dtd"
   xmlns="http://www.w3.org/2000/svg"
   xmlns:svg="http://www.w3.org/2000/svg">
  <sodipodi:namedview
     id="namedview1"
     pagecolor="#ffffff"
     bordercolor="#000000"
     borderopacity="0.25"
     inkscape:showpageshadow="2"
     inkscape:pageopacity="0.0"
     inkscape:pagecheckerboard="0"
     inkscape:deskcolor="#d1d1d1"
     inkscape:document-units="mm"
     showguides="true"
     inkscape:zoom="0.28012691"
     inkscape:cx="583.66402"
     inkscape:cy="-21.418863"
     inkscape:window-width="1920"
     inkscape:window-height="1008"
     inkscape:window-x="0"
     inkscape:window-y="0"
     inkscape:window-maximized="1"
     inkscape:current-layer="svg1" />
  <defs
     id="defs1" />
  <g
     id="layer1"
     transform="translate(-185.39185,-35.695873)">
    <path
       id="path13"
       style="fill:#000000;stroke:none;stroke-width:1;stroke-miterlimit:10;paint-order:fill markers stroke"
       d="M 203.84033,35.695873 189.08154,61.25917 h 3.69021 5.2e-4 l 7.37836,-12.780615 1.84485,3.195154 -1.84485,3.194637 -5.53455,9.586495 h -7.37939 l -1.84485,3.195154 h 7.37939 7.37991 14.75879 7.3794 l -1.84485,-3.195671 -5.2e-4,-5.17e-4 h -7.37939 l -7.37888,-12.781132 1.84485,-3.195153 7.37939,12.781648 h 3.6897 l -7.37991,-12.781648 -1.84485,-3.195154 5.2e-4,-5.17e-4 -1.84485,-3.195154 -5.2e-4,5.17e-4 z m 5.1e-4,6.390824 1.84485,3.195671 -1.84485,3.195154 -1.84485,-3.195154 z m -5.1e-4,12.782166 5.53402,9.584944 H 198.3063 l 1.84484,-3.195153 z" />
  </g>
</svg>
