<?xml version="1.0" encoding="UTF-8" standalone="no"?>
<!-- Created with Inkscape (http://www.inkscape.org/) -->

<svg
   width="36.897495mm"
   height="50.027439mm"
   viewBox="0 0 36.897496 50.027438"
   version="1.1"
   id="svg1"
   xmlns="http://www.w3.org/2000/svg"
   xmlns:svg="http://www.w3.org/2000/svg">
  <defs
     id="defs1" />
  <g
     id="layer1"
     transform="translate(-231.87427,-26.484744)">
    <path
       id="path16"
       style="fill:#000000;stroke:none;stroke-width:1;stroke-miterlimit:10;paint-order:fill markers stroke"
       d="m 250.32328,26.484744 -3.6897,6.390825 -1.41542,2.451013 -0.42995,0.744657 v 5.17e-4 l 1.84485,3.195671 1.84485,3.195153 -12.91394,22.367111 h 3.69021 5.2e-4 l 5.85081,-10.134782 3.3724,5.840987 v 12.781132 h -14.75879 l -1.84485,3.195154 h 7.37991 7.3794 14.75879 7.37939 l -1.84485,-3.196188 h -5.1e-4 -14.75828 V 60.534862 l 3.37241,-5.840987 5.85184,10.135816 h 3.6897 l -7.3794,-12.781649 -5.53455,-9.586495 1.84485,-3.195671 1.84485,-3.195153 -0.18552,-0.321945 -1.65881,-2.873726 -5.2e-4,5.17e-4 z m 5.1e-4,6.390825 1.84433,3.195154 -1.84484,3.19567 -1.84485,-3.195154 z m -5.1e-4,12.781649 1.84484,3.19567 1.52756,2.645317 -3.3724,5.841504 -3.37241,-5.840988 z" />
  </g>
</svg>
