<?xml version="1.0" encoding="UTF-8" standalone="no"?>
<!-- Created with Inkscape (http://www.inkscape.org/) -->

<svg
   width="30mm"
   height="30mm"
   viewBox="0 0 30 30"
   version="1.1"
   id="svg1"
   inkscape:version="1.3.2 (1:1.3.2+202311252150+091e20ef0f)"
   sodipodi:docname="risemeet_logo.svg"
   xmlns:inkscape="http://www.inkscape.org/namespaces/inkscape"
   xmlns:sodipodi="http://sodipodi.sourceforge.net/DTD/sodipodi-0.dtd"
   xmlns="http://www.w3.org/2000/svg"
   xmlns:svg="http://www.w3.org/2000/svg">
  <sodipodi:namedview
     id="namedview1"
     pagecolor="#ffffff"
     bordercolor="#000000"
     borderopacity="0.25"
     inkscape:showpageshadow="2"
     inkscape:pageopacity="0.0"
     inkscape:pagecheckerboard="0"
     inkscape:deskcolor="#d1d1d1"
     inkscape:document-units="mm"
     showguides="true"
     inkscape:zoom="0.66532633"
     inkscape:cx="468.94281"
     inkscape:cy="289.3317"
     inkscape:window-width="1920"
     inkscape:window-height="1011"
     inkscape:window-x="0"
     inkscape:window-y="0"
     inkscape:window-maximized="1"
     inkscape:current-layer="layer1">
    <inkscape:page
       x="0"
       y="0"
       width="30"
       height="30"
       id="page21"
       margin="0"
       bleed="0" />
    <inkscape:page
       x="157.4612"
       y="8.7689743"
       width="36.897488"
       height="31.954124"
       id="page23"
       margin="0"
       bleed="0"
       inkscape:export-filename="stand.svg"
       inkscape:export-xdpi="96"
       inkscape:export-ydpi="96" />
    <inkscape:page
       x="203.94362"
       y="-0.442155"
       width="36.897495"
       height="50.027439"
       id="page24"
       margin="0 0 0"
       bleed="0" />
  </sodipodi:namedview>
  <defs
     id="defs1" />
  <g
     inkscape:label="Layer 1"
     inkscape:groupmode="layer"
     id="layer1"
     transform="translate(-27.930649,-26.926899)">
    <path
       id="path1"
       style="fill:#000000;stroke:none;stroke-width:1;stroke-miterlimit:10;paint-order:fill markers stroke"
       d="m 28.171461,35.696008 14.758789,25.563298 1.845365,-3.195671 v -5.17e-4 L 33.706523,38.891162 h 3.689698 18.448486 l 1.844849,-3.195154 H 42.93025 Z m 25.828397,6.390825 -14.774292,0.02584 7.379395,12.781649 z" />
    <path
       style="fill:#000000;stroke:none;stroke-width:1;stroke-miterlimit:10;paint-order:fill markers stroke"
       d="m 90.288721,42.086834 -18.463986,0.03229 9.222305,15.973705 z"
       id="path4" />
    <path
       style="fill:#000000;stroke:none;stroke-width:1;stroke-miterlimit:10;paint-order:fill markers stroke"
       d="m 60.770626,35.696008 14.758789,25.563298 1.845365,-3.195671 v -5.17e-4 L 66.305688,38.891162 h 3.689698 18.448486 l 1.844849,-3.195154 H 75.529415 Z"
       id="path3" />
    <path
       style="fill:#000000;stroke:none;stroke-width:1;stroke-miterlimit:10;paint-order:fill markers stroke"
       d="m 93.97843,42.086771 -29.51786,-1.62e-4 1.844849,3.195968 4.49e-4,2.59e-4 22.137946,-1.37e-4 -1.844849,3.195372 -9.224243,15.976857 1.84466,3.195264 7.379653,-12.781934 z"
       id="path5" />
    <path
       style="fill:#000000;stroke:none;stroke-width:1;stroke-miterlimit:10;paint-order:fill markers stroke"
       d="m 100.74944,35.696008 14.75879,25.563298 1.84536,-3.195671 v -5.17e-4 L 106.2845,38.891162 h 3.6897 18.44849 l 1.84484,-3.195154 h -14.7593 z"
       id="path7" />
    <path
       style="fill:#000000;stroke:none;stroke-width:1;stroke-miterlimit:10;paint-order:fill markers stroke"
       d="m 133.95724,42.086771 -29.51786,-1.62e-4 1.84485,3.195968 4.5e-4,2.59e-4 22.13795,-1.37e-4 -1.84485,3.195372 -9.22424,15.976857 1.84466,3.195264 7.37965,-12.781934 z"
       id="path8" />
    <path
       style="fill:#000000;stroke:none;stroke-width:1;stroke-miterlimit:10;paint-order:fill markers stroke"
       d="m 122.88801,61.259083 14.75907,-25.563136 -3.69021,-2.98e-4 -4.5e-4,2.6e-4 -11.06886,19.172096 -1.84485,-3.195373 -9.22424,-15.976855 -3.68951,-1.1e-4 7.37965,12.781932 z"
       id="path9" />
    <path
       style="fill:#000000;stroke:none;stroke-width:1;stroke-miterlimit:10;paint-order:fill markers stroke"
       d="m 162.86696,67.650115 14.75907,-25.563137 -3.69021,-2.92e-4 -4.5e-4,2.59e-4 -11.06886,19.172091 -1.84485,-3.195374 -9.22424,-15.976861 -3.68951,-1.01e-4 7.37965,12.781928 z"
       id="path10" />
    <path
       style="fill:#000000;stroke:none;stroke-width:1;stroke-miterlimit:10;paint-order:fill markers stroke"
       d="m 151.79762,35.695935 14.75879,25.563297 1.84537,-3.19567 -1e-5,-5.19e-4 -11.06909,-19.171959 3.6897,10e-7 18.44848,-3e-6 1.84485,-3.195154 -14.7593,2e-6 z"
       id="path11" />
    <path
       style="fill:#000000;stroke:none;stroke-width:1;stroke-miterlimit:10;paint-order:fill markers stroke"
       d="m 173.93595,35.696013 -29.51786,-1.62e-4 1.84484,3.195965 4.5e-4,2.6e-4 22.13795,-1.34e-4 -1.84484,3.195373 -9.22425,15.976854 1.84466,3.195264 7.37966,-12.78193 z"
       id="path12" />
    <path
       id="path13"
       style="fill:#000000;stroke:none;stroke-width:1;stroke-miterlimit:10;paint-order:fill markers stroke"
       d="M 203.84033,35.695873 189.08154,61.25917 h 3.69021 5.2e-4 l 7.37836,-12.780615 1.84485,3.195154 -1.84485,3.194637 -5.53455,9.586495 h -7.37939 l -1.84485,3.195154 h 7.37939 7.37991 14.75879 7.3794 l -1.84485,-3.195671 -5.2e-4,-5.17e-4 h -7.37939 l -7.37888,-12.781132 1.84485,-3.195153 7.37939,12.781648 h 3.6897 l -7.37991,-12.781648 -1.84485,-3.195154 5.2e-4,-5.17e-4 -1.84485,-3.195154 -5.2e-4,5.17e-4 z m 5.1e-4,6.390824 1.84485,3.195671 -1.84485,3.195154 -1.84485,-3.195154 z m -5.1e-4,12.782166 5.53402,9.584944 H 198.3063 l 1.84484,-3.195153 z" />
    <path
       id="path16"
       style="fill:#000000;stroke:none;stroke-width:1;stroke-miterlimit:10;paint-order:fill markers stroke"
       d="m 250.32328,26.484744 -3.6897,6.390825 -1.41542,2.451013 -0.42995,0.744657 v 5.17e-4 l 1.84485,3.195671 1.84485,3.195153 -12.91394,22.367111 h 3.69021 5.2e-4 l 5.85081,-10.134782 3.3724,5.840987 v 12.781132 h -14.75879 l -1.84485,3.195154 h 7.37991 7.3794 14.75879 7.37939 l -1.84485,-3.196188 h -5.1e-4 -14.75828 V 60.534862 l 3.37241,-5.840987 5.85184,10.135816 h 3.6897 l -7.3794,-12.781649 -5.53455,-9.586495 1.84485,-3.195671 1.84485,-3.195153 -0.18552,-0.321945 -1.65881,-2.873726 -5.2e-4,5.17e-4 z m 5.1e-4,6.390825 1.84433,3.195154 -1.84484,3.19567 -1.84485,-3.195154 z m -5.1e-4,12.781649 1.84484,3.19567 1.52756,2.645317 -3.3724,5.841504 -3.37241,-5.840988 z" />
  </g>
</svg>
