<?xml version="1.0" encoding="UTF-8" standalone="no"?>
<!-- Created with Inkscape (http://www.inkscape.org/) -->

<svg
   width="8.0568705mm"
   height="7.5401621mm"
   viewBox="0 0 8.0568702 7.540162"
   version="1.1"
   id="svg1"
   inkscape:version="1.3.2 (1:1.3.2+202311252150+091e20ef0f)"
   sodipodi:docname="risemeet.svg"
   xmlns:inkscape="http://www.inkscape.org/namespaces/inkscape"
   xmlns:sodipodi="http://sodipodi.sourceforge.net/DTD/sodipodi-0.dtd"
   xmlns="http://www.w3.org/2000/svg"
   xmlns:svg="http://www.w3.org/2000/svg">
  <sodipodi:namedview
     id="namedview1"
     pagecolor="#ffffff"
     bordercolor="#000000"
     borderopacity="0.25"
     inkscape:showpageshadow="2"
     inkscape:pageopacity="0.0"
     inkscape:pagecheckerboard="0"
     inkscape:deskcolor="#d1d1d1"
     inkscape:document-units="mm"
     showguides="true"
     inkscape:zoom="24.498244"
     inkscape:cx="15.225581"
     inkscape:cy="14.266329"
     inkscape:window-width="1920"
     inkscape:window-height="1011"
     inkscape:window-x="0"
     inkscape:window-y="0"
     inkscape:window-maximized="1"
     inkscape:current-layer="layer1">
    <sodipodi:guide
       position="0.92754285,57.472497"
       orientation="0,-1"
       id="guide7"
       inkscape:locked="false" />
    <sodipodi:guide
       position="2.8027558,51.736717"
       orientation="0,-1"
       id="guide8"
       inkscape:locked="false" />
  </sodipodi:namedview>
  <defs
     id="defs1" />
  <g
     inkscape:label="Layer 1"
     inkscape:groupmode="layer"
     id="layer1"
     transform="translate(-47.747473,-76.289113)">
    <rect
       style="display:none;fill:#ffffff;stroke:none;stroke-width:1;stroke-miterlimit:10;paint-order:fill markers stroke"
       id="rect1"
       width="8.0568705"
       height="7.5401621"
       x="47.747475"
       y="76.289116" />
    <path
       id="path13"
       style="fill:#000000;stroke:none;stroke-width:1;stroke-miterlimit:10;paint-order:fill markers stroke"
       d="M 51.756123,77.035247 49.05508,81.71365 h 0.675355 9.5e-5 l 1.350332,-2.339012 0.337631,0.584753 -0.337631,0.584658 -1.012892,1.754449 h -1.35052 l -0.337631,0.584753 h 1.350521 1.350616 2.701043 1.350522 l -0.337631,-0.584848 -9.5e-5,-9.5e-5 h -1.35052 l -1.350428,-2.339107 0.337631,-0.584753 1.350521,2.339202 h 0.675261 l -1.350616,-2.339202 -0.337631,-0.584753 9.6e-5,-9.4e-5 -0.337631,-0.584753 -9.5e-5,9.4e-5 z m 9.4e-5,1.169601 0.33763,0.584847 -0.33763,0.584753 -0.337631,-0.584753 z m -9.4e-5,2.339296 1.012795,1.754164 h -2.025591 l 0.337629,-0.584753 z"
       inkscape:label="rise" />
  </g>
</svg>
