<?xml version="1.0" encoding="UTF-8" standalone="no"?>
<!-- Created with Inkscape (http://www.inkscape.org/) -->

<svg
   width="48.625607mm"
   height="44.982548mm"
   viewBox="0 0 48.625604 44.982546"
   version="1.1"
   id="svg1"
   inkscape:version="1.4 (1:1.4+202410161351+e7c3feb100)"
   sodipodi:docname="risemeet.svg"
   xmlns:inkscape="http://www.inkscape.org/namespaces/inkscape"
   xmlns:sodipodi="http://sodipodi.sourceforge.net/DTD/sodipodi-0.dtd"
   xmlns="http://www.w3.org/2000/svg"
   xmlns:svg="http://www.w3.org/2000/svg">
  <sodipodi:namedview
     id="namedview1"
     pagecolor="#ffffff"
     bordercolor="#000000"
     borderopacity="0.25"
     inkscape:showpageshadow="2"
     inkscape:pageopacity="0.0"
     inkscape:pagecheckerboard="0"
     inkscape:deskcolor="#d1d1d1"
     inkscape:document-units="mm"
     showguides="true"
     inkscape:zoom="3.6724965"
     inkscape:cx="95.983754"
     inkscape:cy="101.0212"
     inkscape:window-width="1920"
     inkscape:window-height="1008"
     inkscape:window-x="0"
     inkscape:window-y="0"
     inkscape:window-maximized="1"
     inkscape:current-layer="layer1">
    <sodipodi:guide
       position="11.878313,89.295409"
       orientation="0,-1"
       id="guide7"
       inkscape:locked="false" />
    <sodipodi:guide
       position="13.753526,83.559628"
       orientation="0,-1"
       id="guide8"
       inkscape:locked="false" />
    <inkscape:page
       x="0"
       y="0"
       width="48.625607"
       height="44.982548"
       id="page1"
       margin="0"
       bleed="0" />
  </sodipodi:namedview>
  <defs
     id="defs1" />
  <g
     inkscape:label="Layer 1"
     inkscape:groupmode="layer"
     id="layer1"
     transform="translate(-36.796702,-74.920267)">
    <rect
       style="display:none;fill:#ffffff;stroke:none;stroke-width:1;stroke-miterlimit:10;paint-order:fill markers stroke"
       id="rect1"
       width="8.0568705"
       height="7.5401621"
       x="47.747475"
       y="76.289116" />
    <path
       id="path13"
       style="fill:#000000;stroke:none;stroke-width:5.00022;stroke-miterlimit:10;paint-order:fill markers stroke"
       d="M 61.109271,82.790887 47.60346,106.18392 h 3.376924 4.75e-4 l 6.751958,-11.695562 1.688229,2.923894 -1.688229,2.923418 -5.064684,8.77262 h -6.752898 l -1.688229,2.9239 h 6.752903 6.753378 13.505811 6.752908 l -1.688229,-2.92437 -4.76e-4,-4.8e-4 h -6.752898 l -6.752437,-11.696038 1.688229,-2.923894 6.752903,11.696512 h 3.376454 l -6.753378,-11.696512 -1.68823,-2.923894 4.81e-4,-4.7e-4 -1.68823,-2.923894 -4.75e-4,4.7e-4 z m 4.7e-4,5.848263 1.688225,2.924364 -1.688225,2.923894 -1.688229,-2.923894 z m -4.7e-4,11.697 5.064198,8.77119 H 56.045068 l 1.688219,-2.92389 z"
       inkscape:label="rise" />
  </g>
</svg>
